<?xml version="1.0" encoding="utf-8"?>
<!-- Generator: Adobe Illustrator 21.0.0, SVG Export Plug-In . SVG Version: 6.00 Build 0)  -->
<svg version="1.1" xmlns="http://www.w3.org/2000/svg" xmlns:xlink="http://www.w3.org/1999/xlink" x="0px" y="0px"
	 viewBox="0 0 1024 1024" style="enable-background:new 0 0 1024 1024;" xml:space="preserve">
<style type="text/css">
	.st0{fill:#850689;}
	.st1{fill:#38043A;}
	.st2{fill:#9A109E;}
	.st3{fill:#C60DCC;}
	.st4{fill:#FF00FF;}
	.st5{fill:#D9DBD9;stroke:#FFFFFF;stroke-width:0.75;stroke-miterlimit:10;}
	.st6{display:none;}
</style>
<g id="pie-chart">
	<path class="st0" d="M929,513c0-0.3,0-0.7,0-1c0-89.4-28.1-172.2-76-240.1l61.6-44.2c0-0.1-0.1-0.1-0.1-0.2l0.2-0.1
		c55.2,81.5,87.4,179.8,87.4,285.7H929z"/>
	<path class="st1" d="M929,512c0,0.3,0,0.7,0,1H650c0-0.3,0-0.7,0-1c0-28.6-8.7-55.2-23.7-77.3l71.6-51.5l1.9-1.4l4.9-3.5l148-106.5
		l61.5-44.3c0,0.1,0.1,0.1,0.1,0.2L853,271.9C900.9,339.8,929,422.6,929,512z"/>
	<path class="st0" d="M914.4,227.5l-61.5,44.3C803.6,202,733.6,148.1,651.8,119L676,48.1c0,0-0.1,0-0.1,0l0-0.2
		C768.4,81.4,852.2,141.9,914.4,227.5z"/>
	<path class="st0" d="M914.5,227.6L853,271.9L704.8,378.3l-4.9,3.5l-1.9,1.4l-71.7,51.5c-15.7-23.2-38.3-41.3-64.8-51.5l37.9-10.8
		l-37.9,10.8L651.7,119l24.2-70.9c0,0,0.1,0,0.1,0L651.8,119c81.8,29.1,151.9,83,201.1,152.7l61.5-44.3
		C914.4,227.5,914.5,227.6,914.5,227.6z"/>
	<path class="st0" d="M675.8,48.1L651.7,119C608,103.5,561,95,512,95c-41,0-80.7,5.9-118.2,17l-21.2-68.8
		C467.1,16,575.4,15.5,675.8,48.1z"/>
	<path class="st2" d="M676,48.1L651.8,119l-90.3,264.1L532,355l29.5,28.1c-15.4-5.9-32-9.1-49.5-9.1c-12.5,0-24.6,1.7-36.1,4.8
		l-36-13.6l35.9,13.6l-82.3-266.7l-21.2-68.8c0.1,0,0.3-0.1,0.4-0.1l21.2,68.8C431.3,100.9,471,95,512,95c49,0,96,8.5,139.7,24
		l24.2-70.9C675.9,48.1,675.9,48.1,676,48.1z"/>
	<path class="st0" d="M393.5,112.1C307.5,137.5,233,190,180,259.6l-56-42.1c60.4-77.7,147.9-141.9,248.6-174.6l0.1,0.2
		c-0.1,0-0.3,0.1-0.4,0.1L393.5,112.1z"/>
	<path class="st3" d="M351.2,473l51.9-45.8l-188.9-142L180,259.6c53-69.6,127.4-122.1,213.5-147.5l-21.2-68.8c0.1,0,0.3-0.1,0.4-0.1
		l21.2,68.8l82,266.8l-36-13.6l35.9,13.6c-29.2,7.9-54.5,25.1-72.6,48.3L351,472.5L351.2,473z"/>
	<path class="st0" d="M95,512c0,0.3,0,0.7,0,1H26c3.2-98.4,35.6-209.9,97.8-295.5l56.2,42.2C126.7,329.7,95,417.1,95,512z"/>
	<path class="st4" d="M351.7,473h-0.6l51.9-45.8C384.8,450.6,374,480,374,512c0,0.3,0,0.7,0,1H95c0-0.3,0-0.7,0-1
		c0-94.9,31.7-182.3,85-252.4l34.2,25.6l189,141.8L351,472.5l0.1,0.1l0.1,0.1l0,0l0.2,0.1L351.7,473L351.7,473z"/>
	<path class="st0" d="M1002,513c0,105.8-32.2,204.2-87.4,285.7l-0.2-0.1c0-0.1,0.1-0.1,0.1-0.2L852,753.5
		c48.3-67.9,76.8-150.8,77-240.5H1002z"/>
	<path class="st5" d="M852,753.5l62.5,44.9c0,0.1-0.1,0.1-0.1,0.2l-62.5-45L709.7,651.3l-4.9-3.5l-79.4-57.1
		c15.3-22.1,24.4-48.8,24.6-77.6h279C928.8,602.6,900.3,685.6,852,753.5z"/>
	<path class="st0" d="M914.4,798.5c-62.2,85.5-146,146.1-238.5,179.5l0-0.2c0,0,0.1,0,0.1,0l-24.8-72.7
		c81.6-28.9,151.5-82.4,200.8-151.6L914.4,798.5z"/>
	<path class="st5" d="M914.5,798.3c0,0.1-0.1,0.1-0.1,0.2l-62.5-45c-49.3,69.2-119.2,122.8-200.8,151.6l24.8,72.7c0,0-0.1,0-0.1,0
		L651,905.3l-90.2-264.2L544,664l16.9-22.9c26.3-9.9,48.7-27.7,64.5-50.4l79.4,57l4.9,3.5L852,753.5L914.5,798.3z"/>
	<path class="st0" d="M675.8,977.9c-100.5,32.6-208.7,32.1-303.2,5l21.7-70.7c37.3,11,76.8,16.8,117.6,16.8
		c48.8,0,95.6-8.4,139-23.8L675.8,977.9z"/>
	<path class="st5" d="M678,977.7c0,0-0.1,0-0.1,0L653,905c-43.5,15.4-90.3,23.8-139,23.8c-40.8,0-80.3-5.9-117.6-16.8l-21.7,70.7
		c-0.1,0-0.3-0.1-0.4-0.1l21.8-70.7l82.3-266.7l-28.4,7.6l28.5-7.6c11.3,3,23.3,4.6,35.5,4.6c17.2,0,33.7-3.2,48.9-8.9L551,665.8
		l11.9-24.9L653.1,905h0L678,977.7z"/>
	<path class="st0" d="M372.3,982.7c0.1,0,0.3,0.1,0.4,0.1l-0.1,0.2C271.9,950.4,184.5,886.2,124,808.5l57-42.8
		c53.1,69.2,127.3,121.2,213.1,146.4L372.3,982.7z"/>
	<path class="st5" d="M360,581.8l46.2,16.2c18.1,22.7,43.3,39.5,72.2,47.2l-26.4,7.6l26.5-7.6l-82,266.8l-21.7,70.7
		c-0.1,0-0.3-0.1-0.4-0.1l21.8-70.7c-85.7-25.2-160-77.3-213.1-146.4l33.2-25l3.6-2.7l186.3-140l12.9,54L360,581.8z"/>
	<path class="st0" d="M181,765.6l-57.2,42.9C61.6,722.9,29.2,611.4,26,513h69C95.2,608,127.2,695.6,181,765.6z"/>
	<path class="st5" d="M328.7,597L328.7,597l-0.3,0.2l-0.2,0.1l0,0l-0.1,0.1l-0.1,0.1l76.2,0.6L217.8,738l-3.6,2.7L181,765.6
		C127.2,695.6,95.2,608,95,513h279c0.2,32.1,11.4,61.7,30.1,85l-75.9-1H328.7z"/>
</g>
<g id="Layer_1" class="st6">
	
		<image style="display:inline;overflow:visible;" width="869" height="895" xlink:href="pie-chart.png"  transform="matrix(1.1453 0 0 1.1453 14.0883 -1)">
	</image>
</g>
</svg>
