<svg xmlns="http://www.w3.org/2000/svg" viewBox="0 0 27.7 25.98"><defs><style>.cls-1{fill:#fff;}</style></defs><title>Asset 7</title><g id="Layer_2" data-name="Layer 2"><g id="Layer_1-2" data-name="Layer 1"><path class="cls-1" d="M22.48,9.25A8.91,8.91,0,0,0,18.08.58c-.94-.53-1.7-.8-1.9-.37s-.1.68.43,1A5.63,5.63,0,0,1,19.4,6,5.94,5.94,0,0,1,19,7.91,8.14,8.14,0,0,0,8.65,8a5.72,5.72,0,0,1-.37-2A6,6,0,0,1,10.7,1.36s.2-.15.56-.37.43-.45.31-.68-.26-.39-.8-.23A7.76,7.76,0,0,0,8.44,1.43,8.64,8.64,0,0,0,5.18,9.32,8.51,8.51,0,0,0,.05,18.14c.08.7.25,1.18.82,1.07s.54-.51.58-1a6.76,6.76,0,0,1,.73-2.67,5.09,5.09,0,0,1,3.64-2.62,8.28,8.28,0,0,0-.11,1.3,8.14,8.14,0,0,0,5.39,7.66l0,0A5.58,5.58,0,0,1,4,23.15c-.53-.31-.76-.26-.93-.06a.56.56,0,0,0,0,.73,7.69,7.69,0,0,0,2.72,1.64,9.07,9.07,0,0,0,8.15-1.19A8.63,8.63,0,0,0,24.46,24c.33-.27.51-.47.27-.86s-.48-.31-1.27.18a5.65,5.65,0,0,1-6.28-.87,5.27,5.27,0,0,1-.55-.6A8.14,8.14,0,0,0,22,14.22,8.26,8.26,0,0,0,21.89,13a5.52,5.52,0,0,1,1.36.39,5.63,5.63,0,0,1,3.23,4.79c-.06,1.1.46,1.11.46,1.11.73,0,.86-.83.72-3a8.94,8.94,0,0,0-5.17-7m-8.63-.41a5.34,5.34,0,0,1,3.54,1.34A5.38,5.38,0,0,1,14,11.57a5.82,5.82,0,0,1-3.75-1.34,5.34,5.34,0,0,1,3.6-1.39m-1.56,9.66a6.13,6.13,0,0,1-.1.82,5.37,5.37,0,0,1-3.6-6.18,5.73,5.73,0,0,1,3.71,5.36m1.56-2.35a2,2,0,1,1,2-2,2,2,0,0,1-2,2m1.66,3.18a5.43,5.43,0,0,1,3.61-6.16,5.37,5.37,0,0,1-3.61,6.16"/></g></g></svg>