<svg xmlns="http://www.w3.org/2000/svg" viewBox="0 0 18.75 32.04"><defs><style>.cls-1{fill:#fff;}</style></defs><title>Asset 6</title><g id="Layer_2" data-name="Layer 2"><g id="Layer_1-2" data-name="Layer 1"><path class="cls-1" d="M13,19.28V12a.94.94,0,0,0,.87-1c0-.47-.28-1.09-.86-1.09H5.66c-.89,0-.85,1.09-.85,1.09a1.08,1.08,0,0,0,.89,1v7.35L.26,30.23C-.37,31.5.26,32,.94,32H17.73c1.14,0,1.2-.94.76-1.83L13,19.28m-7.1,3.82,1.62-3.31V12h3.56v1H9.71a.71.71,0,0,0,0,1.42h1.4v2.32H9.71a.71.71,0,0,0,0,1.42h1.41v1.43l1.77,3.46Z"/><path class="cls-1" d="M11.17,2.39A1.23,1.23,0,0,0,12.43,1.2a1.26,1.26,0,0,0-2.52,0,1.23,1.23,0,0,0,1.26,1.19"/><path class="cls-1" d="M10.92,4.73a1.66,1.66,0,1,0,1.66,1.66,1.66,1.66,0,0,0-1.66-1.66"/><path class="cls-1" d="M7.79,7.47A2.17,2.17,0,0,0,9.08,7,1.93,1.93,0,0,1,9,6.39,2,2,0,0,1,9.9,4.72a2.18,2.18,0,1,0-2.1,2.75"/></g></g></svg>