<svg xmlns="http://www.w3.org/2000/svg" viewBox="0 0 25.47 20.77"><defs><style>.cls-1{fill:#fff;}</style></defs><title>Asset 4</title><g id="Layer_2" data-name="Layer 2"><g id="Layer_1-2" data-name="Layer 1"><path class="cls-1" d="M25.32,18.52,21.56,7.11c-.46-1.38-.94-1.42-2.71-1.42H16a3.91,3.91,0,0,0,.46-1.85A3.73,3.73,0,1,0,9,3.84a3.91,3.91,0,0,0,.46,1.85H5.37a1.39,1.39,0,0,0-1.4,1C3.73,7.35.84,16.44.18,18.45s.72,2.32,1.36,2.32H23.9c1.24,0,1.86-.9,1.42-2.25M11,16.41,9.83,14.2H9.26v2.21H7.93V11H9.26v2.18H9.8L10.93,11h1.36l-1.44,2.64,1.58,2.81ZM10.69,3.73a2,2,0,0,1,4,0,2,2,0,0,1-4,0m7.23,10.6v2.08H16.81V16a2.11,2.11,0,0,1-1.59.4,2.62,2.62,0,0,1-2.43-2.72,2.75,2.75,0,0,1,2.54-2.76,2.84,2.84,0,0,1,2.3.64l-.57,1a2.09,2.09,0,0,0-1.72-.42,1.47,1.47,0,0,0-1.24,1.73,1.6,1.6,0,0,0,1.7,1.53,1.28,1.28,0,0,0,1-.46v-.47H16V13.33h1.88Z"/></g></g></svg>