<svg xmlns="http://www.w3.org/2000/svg" viewBox="0 0 29.37 28.19"><defs><style>.cls-1{fill:#fff;}</style></defs><title>Asset 1</title><g id="Layer_2" data-name="Layer 2"><g id="Layer_1-2" data-name="Layer 1"><path class="cls-1" d="M.38,9.24c.25.13,1.07.45,1.37.57A7.84,7.84,0,0,0,2,11.65a9.91,9.91,0,0,0-.88.68,1,1,0,0,0-.33,1.32c.16.29.66,1,1,1.57s.63.74,1.2.44l1.07-.55a7.87,7.87,0,0,0,1.64,1.22L5.6,17.47c-.16,1,.72,1.12,1.95,1.41S9,19,9.19,18.61s.36-1,.46-1.31a7.76,7.76,0,0,0,2.1-.32l.75.91c.41.48.66.51,1.08.3s1.31-.8,1.88-1.19a.74.74,0,0,0,.28-1.08c-.1-.25-.4-.86-.51-1.11a7.88,7.88,0,0,0,1.17-1.63l.94.12c.78.09,1-.11,1.14-.38A12.31,12.31,0,0,0,19,11c.18-1-.14-1.16-.44-1.28s-1.21-.36-1.21-.36h0a7.8,7.8,0,0,0-.3-2c.2-.14.56-.39,1-.71a.79.79,0,0,0,.14-1.21c-.17-.26-.6-1.06-1-1.63s-.72-.6-1.11-.43A11.6,11.6,0,0,0,15,3.87h0a7.88,7.88,0,0,0-1.76-1.32c0-.17.08-.41.14-.78.16-1-.29-1.23-.51-1.28S11.32.08,10.71,0a.79.79,0,0,0-1,.54c-.07.24-.27.8-.37,1.07A7.76,7.76,0,0,0,7.2,2l-.61-.78C6.24.77,5.88.59,5.49.8A20.4,20.4,0,0,0,3.63,1.92.87.87,0,0,0,3.27,3c.11.3.44.94.55,1.14a7.88,7.88,0,0,0-1.2,1.72l-1.1-.16c-.49-.06-.8,0-1,.55A17.25,17.25,0,0,0,.09,8c-.22,1,0,1.13.29,1.29M9.54,6A3.47,3.47,0,1,1,6.09,9.46,3.46,3.46,0,0,1,9.54,6"/><path class="cls-1" d="M18.33,14.77a16.29,16.29,0,0,0-1.29,1,.65.65,0,0,0-.18.85c.11.21.41.67.51.81a6,6,0,0,0-.75,1.4l-.84,0c-.37,0-.6.07-.68.5a12.65,12.65,0,0,0-.18,1.31c-.08.74.09.85.33.94s.85.24,1.08.3a6,6,0,0,0,.39,1.35,7.63,7.63,0,0,0-.6.59.72.72,0,0,0-.13,1c.15.2.59.71.9,1.09s.53.49.94.22l.76-.51a5.92,5.92,0,0,0,1.34.77c0,.11,0,.36,0,.87,0,.78.64.77,1.59.89s1.12-.05,1.2-.36.18-.78.23-1a5.82,5.82,0,0,0,1.54-.43l.64.62c.35.33.54.32.84.13s.91-.72,1.3-1.06a.56.56,0,0,0,.11-.84c-.1-.18-.38-.61-.48-.79a5.91,5.91,0,0,0,.73-1.33h.71c.6,0,.77-.18.82-.39a9.39,9.39,0,0,0,.21-1.52c0-.76-.21-.86-.45-.92s-.94-.16-.94-.16h0a5.89,5.89,0,0,0-.4-1.5c.14-.12.38-.35.66-.62a.6.6,0,0,0,0-.92c-.15-.18-.55-.74-.86-1.14s-.6-.39-.88-.22a8.85,8.85,0,0,0-.74.51h0a5.85,5.85,0,0,0-1.44-.83c0-.13,0-.32,0-.6,0-.75-.33-.89-.5-.92s-1.22-.17-1.68-.17-.64.24-.68.5-.13.62-.18.84a5.88,5.88,0,0,0-1.6.47L19.18,15c-.29-.3-.59-.4-.86-.21m3.51,3.53a2.62,2.62,0,1,1-2.27,2.91,2.61,2.61,0,0,1,2.27-2.91"/></g></g></svg>