<svg xmlns="http://www.w3.org/2000/svg" viewBox="0 0 23.26 22.54"><defs><style>.cls-1{fill:#fff;}</style></defs><title>Asset 3</title><g id="Layer_2" data-name="Layer 2"><g id="Layer_1-2" data-name="Layer 1"><path class="cls-1" d="M8.48,11.08A3.06,3.06,0,1,0,11.54,8a3.06,3.06,0,0,0-3.06,3.07"/><path class="cls-1" d="M4.51,20.56,10.15,15a4.2,4.2,0,0,1-2.38-2.14L2.21,18.42,0,16.36v6.18H6.63Z"/><path class="cls-1" d="M7.57,9.75A4.21,4.21,0,0,1,9.78,7.28L4.55,2.09,6.68,0H0V6.57L2.17,4.44Z"/><path class="cls-1" d="M15.36,12.82A4.2,4.2,0,0,1,12.94,15l5.68,5.58-2.06,1.93h6.7V16.27L21,18.4Z"/><path class="cls-1" d="M15.52,9.77,21,4.38l2.23,2.17V0H16.52l2.1,2.11L13.38,7.32a4.2,4.2,0,0,1,2.14,2.45"/></g></g></svg>