<svg xmlns="http://www.w3.org/2000/svg" viewBox="0 0 26.41 26.45"><defs><style>.cls-1{fill:#fff;}</style></defs><title>Asset 10</title><g id="Layer_2" data-name="Layer 2"><g id="Layer_1-2" data-name="Layer 1"><path class="cls-1" d="M6,19l.62.6.75-.86.58-.58a7.31,7.31,0,0,1-2.26-5.28,7.47,7.47,0,0,1,7.54-7.4,7.47,7.47,0,0,1,7.54,7.4,7.3,7.3,0,0,1-2.34,5.35l.58.59h0l.87.86.58-.53-.86-1a8.07,8.07,0,0,0,2-5h1.13v-.84H21.54A8.09,8.09,0,0,0,19.66,7.7l.79-.87-.57-.57-.78.83a8.42,8.42,0,0,0-5.3-2.36V3.58H13V4.71A8.42,8.42,0,0,0,7.26,7.12l-.79-.8L6,6.93l.79.75a8.1,8.1,0,0,0-1.9,5H3.74v.79H4.85a8.09,8.09,0,0,0,1.93,4.75Z"/><path class="cls-1" d="M13.21,26.45A13.23,13.23,0,1,0,0,13.23,13.22,13.22,0,0,0,13.21,26.45m0-24.77A11.64,11.64,0,1,1,1.59,13.32,11.62,11.62,0,0,1,13.19,1.69"/><path class="cls-1" d="M14,11.78a1.34,1.34,0,0,0-.57-.13A1.42,1.42,0,0,0,12,13.37l-1.5,1.25,1,1,1.2-1.34a1.35,1.35,0,0,0,.69.2,1.4,1.4,0,0,0,1.38-1.42,1.45,1.45,0,0,0-.25-.81l3.33-3.72Z"/></g></g></svg>