<svg xmlns="http://www.w3.org/2000/svg" viewBox="0 0 28.95 27.12"><defs><style>.cls-1{fill:#fff;}</style></defs><title>Asset 8</title><g id="Layer_2" data-name="Layer 2"><g id="Layer_1-2" data-name="Layer 1"><path class="cls-1" d="M17.77,10.28a4,4,0,0,1,.64,3.13h9.85c.37,0,.72-.17.69-1.18a16.4,16.4,0,0,0-.54-3.36C27.21,3.68,22.66.68,22,.29S21-.11,20.6.5s-4.82,8.37-4.82,8.37a4.52,4.52,0,0,1,2,1.41"/><path class="cls-1" d="M.9,13.4h9.66A4.53,4.53,0,0,1,10.79,11a4,4,0,0,1,2.4-2.11L8.28.33C8.1,0,7.78-.21,6.92.32A16.42,16.42,0,0,0,4.26,2.46C.37,6.08,0,11.52,0,12.26s.19,1.14.9,1.14"/><path class="cls-1" d="M17.11,15.66a4.51,4.51,0,0,1-2.22,1,4,4,0,0,1-3-1L6.94,24.2c-.19.32-.22.71.67,1.19a16.45,16.45,0,0,0,3.18,1.21c5.09,1.55,10-.9,10.61-1.25s.89-.74.54-1.35-4.84-8.35-4.84-8.35"/><path class="cls-1" d="M12,12.62a2.47,2.47,0,1,0,2.46-2.46A2.46,2.46,0,0,0,12,12.62"/></g></g></svg>