<svg xmlns="http://www.w3.org/2000/svg" viewBox="0 0 27.14 23.38"><defs><style>.cls-1{fill:#fff;}</style></defs><title>Asset 9</title><g id="Layer_2" data-name="Layer 2"><g id="Layer_1-2" data-name="Layer 1"><path class="cls-1" d="M18.19.6a1,1,0,0,0,.51,1.31h0A12.4,12.4,0,0,1,22,4.28a10.94,10.94,0,0,1,2.17,3,10,10,0,0,1,1,4.37c0,.22,0,.45,0,.68h0a9.1,9.1,0,0,1-.82,3.39,11.3,11.3,0,0,1-2.81,3.71,13.44,13.44,0,0,1-3,2,1,1,0,1,0,.87,1.8A15.52,15.52,0,0,0,24,19.74a12.6,12.6,0,0,0,2.08-3.16,11.13,11.13,0,0,0,1-4.11h0c0-.27,0-.53,0-.79a12,12,0,0,0-1.2-5.3,13.52,13.52,0,0,0-4-4.78A13.17,13.17,0,0,0,19.51.08,1,1,0,0,0,18.19.6"/><path class="cls-1" d="M20.75,17.18a8.71,8.71,0,0,0,2.19-4.78v0a7.79,7.79,0,0,0,0-.81,7.48,7.48,0,0,0-.82-3.42A9.65,9.65,0,0,0,19.47,5a9.79,9.79,0,0,0-1.63-1A1,1,0,0,0,17,5.7h0A8.81,8.81,0,0,1,19,7.23,7.08,7.08,0,0,1,20.4,9.07,5.5,5.5,0,0,1,21,11.55c0,.19,0,.39,0,.6a6.7,6.7,0,0,1-1.69,3.69,10.14,10.14,0,0,1-2.38,1.85,1,1,0,0,0,1,1.71,12.12,12.12,0,0,0,2.83-2.22"/><path class="cls-1" d="M17.71,14.47a3.87,3.87,0,0,0,.74-1.15,4.12,4.12,0,0,0,.3-1.59v0A3.85,3.85,0,0,0,18.31,10,5.36,5.36,0,0,0,17,8.34a5.64,5.64,0,0,0-.8-.57,1,1,0,0,0-1,1.74h0a4.24,4.24,0,0,1,.83.68,3,3,0,0,1,.51.7,1.87,1.87,0,0,1,.21.81v0a2.13,2.13,0,0,1-.15.83,2,2,0,0,1-.59.78,2.84,2.84,0,0,1-.69.41,1,1,0,0,0,.77,1.84,4.66,4.66,0,0,0,1.62-1.12"/><path class="cls-1" d="M10.75,2c-.57.65-5.35,5.42-5.35,5.42H1.07A1.08,1.08,0,0,0,0,8.58v6a1,1,0,0,0,1.07,1.19H5.35S9.81,20.33,10.42,21s.86.65,1.26.57.85-.29.85-1.32V3.08c0-1.4-1.21-1.7-1.77-1.05"/></g></g></svg>