<svg xmlns="http://www.w3.org/2000/svg" viewBox="0 0 16.48 28.76"><defs><style>.cls-1{fill:#fff;}</style></defs><title>Asset 5</title><g id="Layer_2" data-name="Layer 2"><g id="Layer_1-2" data-name="Layer 1"><path class="cls-1" d="M9.42,17.17V3.1A3.14,3.14,0,0,0,6.06,0,3.19,3.19,0,0,0,3.11,3.29V17.16a6.23,6.23,0,1,0,9.4,5.38,6.21,6.21,0,0,0-3.09-5.36M6.26,27.47A4.93,4.93,0,0,1,4.34,18V3.39A1.94,1.94,0,0,1,6.11,1.22,1.87,1.87,0,0,1,8.16,3.33V18h0a4.93,4.93,0,0,1-1.91,9.48"/><path class="cls-1" d="M7,18.64V5.09H5.47V18.64a4,4,0,1,0,1.58,0"/><rect class="cls-1" x="11.69" y="3.68" width="4.79" height="1.2"/><rect class="cls-1" x="11.69" y="9.07" width="4.79" height="1.2"/><rect class="cls-1" x="11.69" y="14.38" width="4.79" height="1.2"/><rect class="cls-1" x="11.69" y="11.66" width="2.79" height="1.2"/><rect class="cls-1" x="11.69" y="6.35" width="2.79" height="1.2"/></g></g></svg>